<svg width="1006" height="1006" viewBox="0 0 1006 1006" fill="none" xmlns="http://www.w3.org/2000/svg">
<circle cx="503" cy="503" r="501.5" fill="white" stroke="black" stroke-width="3"/>
<circle cx="503" cy="503" r="445" fill="white" stroke="#FF0000" stroke-width="80"/>
<path d="M318.437 463.602H338.33C353.17 463.602 366.432 460.997 378.115 455.787C389.956 450.577 399.27 443.867 406.059 435.657C413.006 427.448 416.479 418.922 416.479 410.081C416.479 401.714 413.874 394.688 408.664 389.004C403.454 383.163 396.823 378.742 388.771 375.743C380.878 372.743 372.747 371.243 364.379 371.243C346.223 371.243 329.646 373.927 314.648 379.295C299.807 384.663 285.677 394.214 272.258 407.95L263.969 358.218C273.442 347.483 287.177 338.484 305.175 331.221C323.331 323.959 342.277 320.328 362.011 320.328C383.64 320.328 402.98 323.643 420.031 330.274C437.24 336.747 450.817 346.141 460.764 358.455C470.71 370.612 475.683 385.136 475.683 402.029C475.683 416.396 471.657 429.5 463.605 441.341C455.712 453.182 445.923 462.97 434.24 470.706C422.557 478.284 411.111 483.257 399.902 485.625C408.269 487.046 417.505 489.651 427.609 493.44C437.714 497.072 447.265 502.361 456.264 509.307C465.421 516.254 472.92 525.174 478.762 536.067C484.603 546.961 487.524 560.302 487.524 576.089C487.524 594.561 481.525 611.533 469.526 627.005C457.685 642.477 441.66 654.87 421.452 664.185C401.244 673.342 378.667 677.92 353.723 677.92C332.725 677.92 313.148 674.605 294.992 667.974C276.836 661.185 261.522 652.028 249.05 640.503L256.628 580.115C269.574 594.64 284.809 606.086 302.333 614.454C320.016 622.821 338.724 627.005 358.459 627.005C369.984 627.005 380.957 624.874 391.376 620.611C401.954 616.19 410.559 609.875 417.189 601.666C423.82 593.298 427.136 583.194 427.136 571.353C427.136 555.25 419.084 541.83 402.98 531.094C387.035 520.359 365.485 514.991 338.33 514.991H318.437V463.602ZM732.619 502.676C732.619 455.944 727.331 422.159 716.753 401.319C706.333 380.479 690.308 370.059 668.679 370.059C648.155 370.059 632.367 380.084 621.316 400.135C610.264 420.185 604.739 451.998 604.739 495.572C604.739 542.146 610.106 575.931 620.842 596.929C631.736 617.769 647.681 628.189 668.679 628.189C689.045 628.189 704.754 618.164 715.805 598.113C727.015 577.905 732.619 546.093 732.619 502.676ZM793.481 496.756C793.481 542.698 787.956 578.852 776.904 605.218C766.011 631.583 751.012 650.292 731.909 661.343C712.806 672.395 690.94 677.92 666.311 677.92C641.998 677.92 620.605 672.395 602.134 661.343C583.82 650.292 569.532 631.899 559.27 606.165C549.166 580.431 544.114 545.54 544.114 501.492C544.114 456.971 549.56 421.527 560.454 395.162C571.505 368.638 586.583 349.535 605.686 337.852C624.947 326.169 646.734 320.328 671.047 320.328C696.623 320.328 718.489 326.09 736.645 337.615C754.959 348.982 769.01 367.612 778.799 393.504C788.587 419.238 793.481 453.655 793.481 496.756Z" fill="black"/>
</svg>
