<svg width="1006" height="489" viewBox="0 0 1006 489" fill="none" xmlns="http://www.w3.org/2000/svg">
<rect x="1.5" y="1.5" width="1003" height="486" rx="51.5" fill="white" stroke="black" stroke-width="3"/>
<rect x="24.5" y="16.5" width="957" height="456" rx="43.5" fill="white" stroke="black" stroke-width="13"/>
<path d="M168.682 287.996C168.682 296.216 166.399 303.614 161.832 310.19C157.448 316.583 151.603 321.607 144.296 325.26C136.989 328.913 129.043 330.74 120.458 330.74C112.238 330.74 104.383 328.913 96.894 325.26C89.5873 321.607 83.6507 316.492 79.084 309.916C74.5173 303.34 72.234 295.851 72.234 287.448C72.234 271.008 79.632 258.313 94.428 249.362C83.6507 242.055 78.262 231.917 78.262 218.948C78.262 211.459 80.18 204.883 84.016 199.22C87.852 193.375 92.9667 188.808 99.36 185.52C105.753 182.232 112.695 180.588 120.184 180.588C128.039 180.588 135.163 182.232 141.556 185.52C147.949 188.808 153.064 193.375 156.9 199.22C160.919 205.065 162.928 211.824 162.928 219.496C162.928 225.159 161.558 230.639 158.818 235.936C156.078 241.051 152.151 245.8 147.036 250.184C161.467 258.952 168.682 271.556 168.682 287.996ZM140.734 220.318C140.734 214.655 138.816 209.997 134.98 206.344C131.144 202.508 126.303 200.59 120.458 200.59C114.613 200.59 109.772 202.508 105.936 206.344C102.1 209.997 100.182 214.655 100.182 220.318C100.182 225.798 102.1 230.547 105.936 234.566C109.772 238.402 114.43 240.32 119.91 240.32C125.755 240.32 130.687 238.493 134.706 234.84C138.725 231.004 140.734 226.163 140.734 220.318ZM146.488 286.352C146.488 278.863 143.931 272.652 138.816 267.72C133.884 262.788 127.673 260.322 120.184 260.322C112.877 260.322 106.758 262.788 101.826 267.72C96.894 272.469 94.428 278.497 94.428 285.804C94.428 292.745 96.9853 298.682 102.1 303.614C107.215 308.363 113.425 310.738 120.732 310.738C127.673 310.738 133.701 308.363 138.816 303.614C143.931 298.865 146.488 293.111 146.488 286.352ZM207.957 330.244C204.149 330.244 200.885 328.952 198.165 326.368C195.445 323.784 194.085 320.588 194.085 316.78C194.085 312.972 195.445 309.708 198.165 306.988C200.885 304.268 204.149 302.908 207.957 302.908C211.765 302.908 214.961 304.268 217.545 306.988C220.265 309.708 221.625 312.972 221.625 316.78C221.625 320.588 220.265 323.784 217.545 326.368C214.961 328.952 211.765 330.244 207.957 330.244ZM276.576 329.632C270.048 329.632 264.404 328.068 259.644 324.94C255.02 321.676 251.212 317.392 248.22 312.088C245.364 306.784 243.256 300.868 241.896 294.34C240.536 287.676 239.856 280.876 239.856 273.94C239.856 266.868 240.536 260.068 241.896 253.54C243.392 246.876 245.568 240.892 248.424 235.588C251.416 230.284 255.224 226.068 259.848 222.94C264.472 219.812 269.98 218.248 276.372 218.248C285.076 218.248 292.08 220.832 297.384 226C302.688 231.168 306.564 237.968 309.012 246.4C311.596 254.832 312.888 263.944 312.888 273.736C312.888 280.808 312.208 287.744 310.848 294.544C309.488 301.208 307.312 307.192 304.32 312.496C301.464 317.664 297.724 321.812 293.1 324.94C288.476 328.068 282.968 329.632 276.576 329.632ZM276.372 313.312C282.764 313.312 287.66 310.184 291.06 303.928C294.596 297.672 296.364 287.676 296.364 273.94C296.364 260.204 294.596 250.208 291.06 243.952C287.66 237.696 282.696 234.568 276.168 234.568C269.912 234.568 265.016 237.696 261.48 243.952C258.08 250.208 256.38 260.204 256.38 273.94C256.38 287.676 258.148 297.672 261.684 303.928C265.22 310.184 270.116 313.312 276.372 313.312ZM365.029 329.632C358.501 329.632 352.857 328.068 348.097 324.94C343.473 321.676 339.665 317.392 336.673 312.088C333.817 306.784 331.709 300.868 330.349 294.34C328.989 287.676 328.309 280.876 328.309 273.94C328.309 266.868 328.989 260.068 330.349 253.54C331.845 246.876 334.021 240.892 336.877 235.588C339.869 230.284 343.677 226.068 348.301 222.94C352.925 219.812 358.433 218.248 364.825 218.248C373.529 218.248 380.533 220.832 385.837 226C391.141 231.168 395.017 237.968 397.465 246.4C400.049 254.832 401.341 263.944 401.341 273.736C401.341 280.808 400.661 287.744 399.301 294.544C397.941 301.208 395.765 307.192 392.773 312.496C389.917 317.664 386.177 321.812 381.553 324.94C376.929 328.068 371.421 329.632 365.029 329.632ZM364.825 313.312C371.217 313.312 376.113 310.184 379.513 303.928C383.049 297.672 384.817 287.676 384.817 273.94C384.817 260.204 383.049 250.208 379.513 243.952C376.113 237.696 371.149 234.568 364.621 234.568C358.365 234.568 353.469 237.696 349.933 243.952C346.533 250.208 344.833 260.204 344.833 273.94C344.833 287.676 346.601 297.672 350.137 303.928C353.673 310.184 358.569 313.312 364.825 313.312ZM567.041 328H545.121V220.044C539.824 224.611 534.527 228.629 529.229 232.1C523.932 235.388 518.452 238.219 512.789 240.594V218.674C531.239 208.993 543.477 196.937 549.505 182.506H567.041V328ZM713.52 199.494C682.832 238.402 665.57 281.237 661.734 328H639.54C643.011 281.603 657.624 240.503 683.38 204.7H620.908V182.506H713.52V199.494ZM750.055 330.244C746.247 330.244 742.983 328.952 740.263 326.368C737.543 323.784 736.183 320.588 736.183 316.78C736.183 312.972 737.543 309.708 740.263 306.988C742.983 304.268 746.247 302.908 750.055 302.908C753.863 302.908 757.059 304.268 759.643 306.988C762.363 309.708 763.723 312.972 763.723 316.78C763.723 320.588 762.363 323.784 759.643 326.368C757.059 328.952 753.863 330.244 750.055 330.244ZM822.754 329.632C816.226 329.632 810.582 328.068 805.822 324.94C801.198 321.676 797.39 317.392 794.398 312.088C791.542 306.784 789.434 300.868 788.074 294.34C786.714 287.676 786.034 280.876 786.034 273.94C786.034 266.868 786.714 260.068 788.074 253.54C789.57 246.876 791.746 240.892 794.602 235.588C797.594 230.284 801.402 226.068 806.026 222.94C810.65 219.812 816.158 218.248 822.55 218.248C831.254 218.248 838.258 220.832 843.562 226C848.866 231.168 852.742 237.968 855.19 246.4C857.774 254.832 859.066 263.944 859.066 273.736C859.066 280.808 858.386 287.744 857.026 294.544C855.666 301.208 853.49 307.192 850.498 312.496C847.642 317.664 843.902 321.812 839.278 324.94C834.654 328.068 829.146 329.632 822.754 329.632ZM822.55 313.312C828.942 313.312 833.838 310.184 837.238 303.928C840.774 297.672 842.542 287.676 842.542 273.94C842.542 260.204 840.774 250.208 837.238 243.952C833.838 237.696 828.874 234.568 822.346 234.568C816.09 234.568 811.194 237.696 807.658 243.952C804.258 250.208 802.558 260.204 802.558 273.94C802.558 287.676 804.326 297.672 807.862 303.928C811.398 310.184 816.294 313.312 822.55 313.312ZM911.207 329.632C904.679 329.632 899.035 328.068 894.275 324.94C889.651 321.676 885.843 317.392 882.851 312.088C879.995 306.784 877.887 300.868 876.527 294.34C875.167 287.676 874.487 280.876 874.487 273.94C874.487 266.868 875.167 260.068 876.527 253.54C878.023 246.876 880.199 240.892 883.055 235.588C886.047 230.284 889.855 226.068 894.479 222.94C899.103 219.812 904.611 218.248 911.003 218.248C919.707 218.248 926.711 220.832 932.015 226C937.319 231.168 941.195 237.968 943.643 246.4C946.227 254.832 947.519 263.944 947.519 273.736C947.519 280.808 946.839 287.744 945.479 294.544C944.119 301.208 941.943 307.192 938.951 312.496C936.095 317.664 932.355 321.812 927.731 324.94C923.107 328.068 917.599 329.632 911.207 329.632ZM911.003 313.312C917.395 313.312 922.291 310.184 925.691 303.928C929.227 297.672 930.995 287.676 930.995 273.94C930.995 260.204 929.227 250.208 925.691 243.952C922.291 237.696 917.327 234.568 910.799 234.568C904.543 234.568 899.647 237.696 896.111 243.952C892.711 250.208 891.011 260.204 891.011 273.94C891.011 287.676 892.779 297.672 896.315 303.928C899.851 310.184 904.747 313.312 911.003 313.312Z" fill="black"/>
<rect x="422" y="263" width="65" height="22" fill="black"/>
</svg>
