<svg width="243" height="243" viewBox="0 0 243 243" fill="none" xmlns="http://www.w3.org/2000/svg">
<path d="M187.312 0H55.6875C24.9321 0 0 24.9321 0 55.6875V187.312C0 218.068 24.9321 243 55.6875 243H187.312C218.068 243 243 218.068 243 187.312V55.6875C243 24.9321 218.068 0 187.312 0Z" fill="#EAB308"/>
<path d="M88.5938 97.4531C88.5938 93.9582 85.7606 91.125 82.2656 91.125C78.7707 91.125 75.9375 93.9582 75.9375 97.4531V196.172C75.9375 199.667 78.7707 202.5 82.2656 202.5C85.7606 202.5 88.5938 199.667 88.5938 196.172V97.4531Z" fill="#18181B"/>
<path d="M110.109 197.438H62.0156C58.5207 197.438 55.6875 200.271 55.6875 203.766C55.6875 207.261 58.5207 210.094 62.0156 210.094H110.109C113.604 210.094 116.438 207.261 116.438 203.766C116.438 200.271 113.604 197.438 110.109 197.438Z" fill="#18181B"/>
<path d="M150.609 86.0625H87.3281C83.8332 86.0625 81 88.8957 81 92.3906C81 95.8856 83.8332 98.7188 87.3281 98.7188H150.609C154.104 98.7188 156.938 95.8856 156.938 92.3906C156.938 88.8957 154.104 86.0625 150.609 86.0625Z" fill="#18181B"/>
<path d="M179.719 96.1875H144.281C140.087 96.1875 136.688 99.5873 136.688 103.781V118.969C136.688 123.163 140.087 126.562 144.281 126.562H179.719C183.913 126.562 187.312 123.163 187.312 118.969V103.781C187.312 99.5873 183.913 96.1875 179.719 96.1875Z" fill="#18181B"/>
<path d="M161.995 130.612C165.63 130.612 168.577 127.666 168.577 124.031C168.577 120.397 165.63 117.45 161.995 117.45C158.361 117.45 155.414 120.397 155.414 124.031C155.414 127.666 158.361 130.612 161.995 130.612Z" fill="#EAB308"/>
</svg>
