<svg width="1006" height="1006" viewBox="0 0 1006 1006" fill="none" xmlns="http://www.w3.org/2000/svg">
<circle cx="503" cy="503" r="501.5" fill="white" stroke="black" stroke-width="3"/>
<circle cx="503" cy="503" r="445" fill="white" stroke="#FF0000" stroke-width="80"/>
<path d="M303.32 633H248.24V429.42C237.44 438.42 227.18 445.62 217.46 451.02C208.1 456.42 198.02 460.92 187.22 464.52V414.3C203.78 406.74 218.36 397.2 230.96 385.68C243.56 373.8 252.74 360.66 258.5 346.26H303.32V633ZM475.761 637.32C451.281 637.32 431.661 630.3 416.901 616.26C402.501 602.22 391.881 584.04 385.041 561.72C378.561 539.4 375.321 515.46 375.321 489.9C375.321 463.98 378.561 439.86 385.041 417.54C391.881 394.86 402.681 376.68 417.441 363C432.201 349.32 451.461 342.48 475.221 342.48C499.341 342.48 518.781 349.14 533.541 362.46C548.301 375.78 558.921 393.6 565.401 415.92C572.241 437.88 575.661 462.36 575.661 489.36C575.661 515.64 572.241 540.12 565.401 562.8C558.921 585.12 548.301 603.12 533.541 616.8C518.781 630.48 499.521 637.32 475.761 637.32ZM475.221 593.58C489.261 593.58 500.061 585.3 507.621 568.74C515.541 551.82 519.501 525.54 519.501 489.9C519.501 454.26 515.541 428.16 507.621 411.6C500.061 394.68 489.081 386.22 474.681 386.22C461.001 386.22 450.381 394.68 442.821 411.6C435.261 428.16 431.481 454.26 431.481 489.9C431.481 525.54 435.261 551.82 442.821 568.74C450.741 585.3 461.541 593.58 475.221 593.58ZM726.503 637.32C702.023 637.32 682.403 630.3 667.643 616.26C653.243 602.22 642.623 584.04 635.783 561.72C629.303 539.4 626.063 515.46 626.063 489.9C626.063 463.98 629.303 439.86 635.783 417.54C642.623 394.86 653.423 376.68 668.183 363C682.943 349.32 702.203 342.48 725.963 342.48C750.083 342.48 769.523 349.14 784.283 362.46C799.043 375.78 809.663 393.6 816.143 415.92C822.983 437.88 826.403 462.36 826.403 489.36C826.403 515.64 822.983 540.12 816.143 562.8C809.663 585.12 799.043 603.12 784.283 616.8C769.523 630.48 750.263 637.32 726.503 637.32ZM725.963 593.58C740.003 593.58 750.803 585.3 758.363 568.74C766.283 551.82 770.243 525.54 770.243 489.9C770.243 454.26 766.283 428.16 758.363 411.6C750.803 394.68 739.823 386.22 725.423 386.22C711.743 386.22 701.123 394.68 693.563 411.6C686.003 428.16 682.223 454.26 682.223 489.9C682.223 525.54 686.003 551.82 693.563 568.74C701.483 585.3 712.283 593.58 725.963 593.58Z" fill="black"/>
</svg>
