<svg width="1006" height="1006" viewBox="0 0 1006 1006" fill="none" xmlns="http://www.w3.org/2000/svg">
<circle cx="503" cy="503" r="501.5" fill="white" stroke="black" stroke-width="3"/>
<circle cx="503" cy="503" r="445" fill="white" stroke="#FF0000" stroke-width="80"/>
<path d="M191.419 633V592.438H250.262V404.484L195.799 434.763L189.705 390.202L251.595 353.64H297.298V592.438H356.331V633H191.419ZM603.501 588.63V633H418.213V594.343C428.496 586.853 439.414 578.283 450.967 568.635C462.52 558.986 473.819 548.703 484.863 537.785C495.908 526.74 505.874 515.441 514.761 503.889C523.775 492.336 530.947 480.974 536.279 469.802C541.612 458.503 544.278 447.839 544.278 437.81C544.278 424.353 540.088 413.625 531.709 405.627C523.457 397.502 512.158 393.439 497.813 393.439C486.133 393.439 473.819 396.74 460.869 403.342C448.047 409.943 437.383 418.386 428.877 428.669L417.832 387.346C423.418 380.236 430.845 373.889 440.113 368.303C449.38 362.717 459.473 358.337 470.391 355.163C481.436 351.862 492.354 350.212 503.145 350.212C520.537 350.212 536.026 353.513 549.61 360.114C563.194 366.589 573.858 375.793 581.602 387.727C589.473 399.66 593.408 413.815 593.408 430.192C593.408 445.808 589.663 461.359 582.173 476.848C574.683 492.336 565.098 507.189 553.418 521.408C541.738 535.627 529.551 548.703 516.856 560.637C504.16 572.57 492.608 582.854 482.197 591.486H532.09C550.879 591.486 565.542 591.359 576.079 591.105C586.743 590.725 595.884 589.899 603.501 588.63ZM803.445 496.843C803.445 459.265 799.192 432.097 790.686 415.339C782.307 398.581 769.421 390.202 752.029 390.202C735.525 390.202 722.829 398.264 713.943 414.387C705.056 430.51 700.613 456.091 700.613 491.13C700.613 528.581 704.929 555.749 713.562 572.634C722.322 589.392 735.144 597.771 752.029 597.771C768.406 597.771 781.038 589.709 789.924 573.586C798.938 557.336 803.445 531.755 803.445 496.843ZM852.385 492.082C852.385 529.025 847.942 558.098 839.055 579.299C830.295 600.5 818.235 615.544 802.873 624.431C787.512 633.317 769.929 637.761 750.124 637.761C730.574 637.761 713.371 633.317 698.518 624.431C683.791 615.544 672.302 600.754 664.05 580.061C655.925 559.367 651.863 531.311 651.863 495.891C651.863 460.09 656.243 431.589 665.002 410.388C673.889 389.06 686.013 373.698 701.374 364.304C716.863 354.909 734.382 350.212 753.933 350.212C774.499 350.212 792.082 354.846 806.682 364.113C821.409 373.254 832.707 388.234 840.579 409.055C848.45 429.748 852.385 457.424 852.385 492.082Z" fill="black"/>
</svg>
