<svg width="964" height="964" viewBox="0 0 964 964" fill="none" xmlns="http://www.w3.org/2000/svg">
<path d="M962 721.828L721.828 962H242.172L2 721.828V242.172L242.172 2H721.828L962 242.172V721.828Z" fill="white" stroke="black" stroke-width="4"/>
<path d="M34 259.25L258.25 35H482.5H706.75L931 259.25V483.5V707.75L706.75 932H482.5H258.25L34 707.75V483.5V259.25Z" fill="#E31E24"/>
<path d="M187.36 608.96C167.56 608.96 150.62 605.55 136.54 598.73C122.68 591.91 111.35 582.89 102.55 571.67L128.62 544.61C137.2 554.51 146.44 561.88 156.34 566.72C166.46 571.34 177.24 573.65 188.68 573.65C201.88 573.65 212 570.68 219.04 564.74C226.08 558.8 229.6 550.22 229.6 539C229.6 529.76 226.96 522.83 221.68 518.21C216.4 513.37 207.49 509.96 194.95 507.98L170.53 504.02C149.19 500.28 134.01 492.58 124.99 480.92C115.97 469.04 111.46 455.07 111.46 439.01C111.46 417.01 118.61 400.18 132.91 388.52C147.21 376.64 167.01 370.7 192.31 370.7C210.35 370.7 225.86 373.56 238.84 379.28C252.04 385 262.6 392.81 270.52 402.71L245.11 429.77C238.95 422.51 231.58 416.79 223 412.61C214.42 408.21 204.3 406.01 192.64 406.01C167.56 406.01 155.02 416.35 155.02 437.03C155.02 445.83 157.66 452.54 162.94 457.16C168.22 461.78 177.24 465.19 190 467.39L214.09 471.68C234.11 475.42 248.96 482.79 258.64 493.79C268.32 504.79 273.16 518.87 273.16 536.03C273.16 546.81 271.29 556.71 267.55 565.73C263.81 574.53 258.31 582.23 251.05 588.83C243.79 595.21 234.77 600.16 223.99 603.68C213.43 607.2 201.22 608.96 187.36 608.96ZM409.321 410.3V605H366.421V410.3H297.121V374.66H478.621V410.3H409.321ZM595.642 608.96C580.682 608.96 567.702 606.32 556.702 601.04C545.702 595.54 536.572 587.73 529.312 577.61C522.272 567.49 516.992 555.06 513.472 540.32C510.172 525.58 508.522 508.75 508.522 489.83C508.522 471.13 510.172 454.41 513.472 439.67C516.992 424.71 522.272 412.17 529.312 402.05C536.572 391.93 545.702 384.23 556.702 378.95C567.702 373.45 580.682 370.7 595.642 370.7C625.562 370.7 647.562 381.15 661.642 402.05C675.722 422.95 682.762 452.21 682.762 489.83C682.762 527.45 675.722 556.71 661.642 577.61C647.562 598.51 625.562 608.96 595.642 608.96ZM595.642 573.65C603.342 573.65 609.832 572.22 615.112 569.36C620.392 566.28 624.572 561.99 627.652 556.49C630.952 550.99 633.262 544.28 634.582 536.36C636.122 528.22 636.892 519.2 636.892 509.3V470.03C636.892 450.23 633.812 434.61 627.652 423.17C621.712 411.73 611.042 406.01 595.642 406.01C580.242 406.01 569.462 411.73 563.302 423.17C557.362 434.61 554.392 450.23 554.392 470.03V509.63C554.392 529.43 557.362 545.05 563.302 556.49C569.462 567.93 580.242 573.65 595.642 573.65ZM730.813 605V374.66H818.263C840.703 374.66 857.863 381.04 869.743 393.8C881.623 406.56 887.563 423.94 887.563 445.94C887.563 467.94 881.623 485.32 869.743 498.08C857.863 510.84 840.703 517.22 818.263 517.22H774.043V605H730.813ZM774.043 481.91H809.353C821.013 481.91 829.373 479.6 834.433 474.98C839.493 470.14 842.023 462.55 842.023 452.21V439.67C842.023 429.33 839.493 421.85 834.433 417.23C829.373 412.39 821.013 409.97 809.353 409.97H774.043V481.91Z" fill="white"/>
</svg>
