<svg xmlns="http://www.w3.org/2000/svg" width="1050" height="350">
<title>5.33 Стоп-линия</title>
<rect x="1" y="1" width="1048" height="348" rx="44" style="fill:#fff"/><path d="M1005 2a43.049 43.049 0 0 1 43 43v260a43.049 43.049 0 0 1-43 43H45a43.049 43.049 0 0 1-43-43V45A43.049 43.049 0 0 1 45 2h960m0-2H45A45 45 0 0 0 0 45v260a45 45 0 0 0 45 45h960a45 45 0 0 0 45-45V45a45 45 0 0 0-45-45z"/><path d="M1005 35a10.011 10.011 0 0 1 10 10v260a10.011 10.011 0 0 1-10 10H45a10.011 10.011 0 0 1-10-10V45a10.011 10.011 0 0 1 10-10h960m0-25H45a35 35 0 0 0-35 35v260a35 35 0 0 0 35 35h960a35 35 0 0 0 35-35V45a35 35 0 0 0-35-35z"/><path d="M175.594 225.774s19.69 23.63 54.774 23.63c30.788 0 39.38-20.05 39.38-27.567v-.358c0-7.876-.357-24.703-45.108-31.146-55.848-8.234-62.65-40.812-62.65-56.207 0-35.084 30.072-62.65 72.674-62.65 35.085 0 67.663 27.566 67.663 27.566l-23.27 25.06s-18.259-20.048-44.393-20.048c-30.072 0-37.59 19.69-37.59 29.356 0 19.332 25.06 22.555 52.626 28.282 35.085 7.519 56.923 27.567 56.923 57.64 0 25.059-26.85 62.649-76.97 62.649-45.109 0-78.761-35.084-78.761-35.084zM497.078 76.488v30.073h-55.132v170.408h-35.084V106.56h-55.133V76.488zM706.507 176.729c0 57.996-26.492 105.252-81.624 105.252s-81.624-47.256-81.624-105.252S569.75 71.476 624.883 71.476s81.624 47.256 81.624 105.253zm-129.238 0c0 45.108 20.047 72.674 47.614 72.674s47.614-27.566 47.614-72.674-20.048-72.675-47.614-72.675-47.614 27.566-47.614 72.675zM830.374 76.488c47.614 0 65.156 37.59 65.156 65.157S877.988 206.8 830.374 206.8h-32.578v70.168h-35.084V76.489zm-32.578 100.24h22.555c20.047 0 40.095-10.024 40.095-35.083 0-25.061-20.048-35.084-40.095-35.084h-22.555z"/></svg>