<svg width="1006" height="1006" viewBox="0 0 1006 1006" fill="none" xmlns="http://www.w3.org/2000/svg">
<circle cx="503" cy="503" r="501.5" fill="white" stroke="black" stroke-width="3"/>
<circle cx="503" cy="503" r="445" fill="white" stroke="#FF0000" stroke-width="80"/>
<path d="M269.179 516.175V326.248H467.631V383.084C458.79 381.189 449.002 379.926 438.266 379.295C427.53 378.663 417.189 378.348 407.243 378.348H324.831V458.155C328.62 456.734 334.225 455.313 341.645 453.892C349.223 452.471 356.88 451.761 364.616 451.761C386.877 451.761 406.848 456.26 424.531 465.259C442.213 474.1 456.185 486.652 466.447 502.913C476.709 519.017 481.84 537.883 481.84 559.512C481.84 584.141 475.92 605.297 464.079 622.979C452.238 640.661 436.293 654.239 416.242 663.711C396.35 673.184 374.01 677.92 349.223 677.92C330.909 677.92 313.859 676.026 298.071 672.237C282.283 668.606 266.969 662.212 252.128 653.055L260.891 592.193C276.836 604.981 291.756 613.822 305.649 618.716C319.7 623.453 335.014 625.821 351.591 625.821C372.273 625.821 389.245 619.979 402.507 608.296C415.926 596.613 422.636 580.747 422.636 560.696C422.636 546.803 418.926 535.515 411.506 526.832C404.243 517.99 394.771 511.438 383.088 507.176C371.563 502.913 359.485 500.782 346.855 500.782C334.383 500.782 321.989 501.966 309.675 504.334C297.36 506.544 283.862 510.491 269.179 516.175ZM732.619 502.676C732.619 455.944 727.331 422.159 716.753 401.319C706.333 380.479 690.308 370.059 668.679 370.059C648.155 370.059 632.367 380.084 621.316 400.135C610.264 420.185 604.739 451.998 604.739 495.572C604.739 542.146 610.106 575.931 620.842 596.929C631.736 617.769 647.681 628.189 668.679 628.189C689.045 628.189 704.754 618.164 715.805 598.113C727.015 577.905 732.619 546.093 732.619 502.676ZM793.481 496.756C793.481 542.698 787.956 578.852 776.904 605.218C766.011 631.583 751.012 650.292 731.909 661.343C712.806 672.395 690.94 677.92 666.311 677.92C641.998 677.92 620.605 672.395 602.134 661.343C583.82 650.292 569.532 631.899 559.27 606.165C549.166 580.431 544.114 545.54 544.114 501.492C544.114 456.971 549.56 421.527 560.454 395.162C571.505 368.638 586.583 349.535 605.686 337.852C624.947 326.169 646.734 320.328 671.047 320.328C696.623 320.328 718.489 326.09 736.645 337.615C754.959 348.982 769.01 367.612 778.799 393.504C788.587 419.238 793.481 453.655 793.481 496.756Z" fill="black"/>
</svg>
