<svg width="1006" height="1006" viewBox="0 0 1006 1006" fill="none" xmlns="http://www.w3.org/2000/svg">
<circle cx="503" cy="503" r="501.5" fill="white" stroke="black" stroke-width="3"/>
<circle cx="503" cy="503" r="445" fill="white" stroke="#FF0000" stroke-width="80"/>
<path d="M475.446 341.641L461.948 397.293C451.844 387.031 441.029 380.163 429.504 376.69C418.137 373.059 406.77 371.243 395.402 371.243C378.825 371.243 363.669 375.585 349.934 384.268C336.198 392.951 325.226 408.029 317.016 429.5C308.806 450.813 304.702 480.731 304.702 519.253C304.702 539.462 307.543 557.776 313.227 574.195C319.069 590.456 327.436 603.323 338.33 612.796C349.381 622.269 362.564 627.005 377.878 627.005C390.35 627.005 401.165 624.163 410.322 618.479C419.479 612.796 426.583 605.297 431.635 595.982C436.687 586.667 439.213 576.642 439.213 565.906C439.213 547.435 434.082 532.357 423.82 520.674C413.558 508.991 398.56 503.15 378.825 503.15C360.511 503.15 343.934 506.86 329.094 514.28C314.411 521.543 302.176 531.252 292.387 543.409L276.994 519.253C290.414 500.94 305.886 485.704 323.41 473.548C340.935 461.391 360.985 455.313 383.562 455.313C406.138 455.313 425.715 459.891 442.292 469.048C459.027 478.205 471.973 490.757 481.13 506.702C490.287 522.49 494.865 540.488 494.865 560.696C494.865 583.904 489.892 604.349 479.946 622.032C470 639.556 456.027 653.292 438.029 663.238C420.031 673.026 398.955 677.92 374.799 677.92C334.541 677.92 303.202 663.475 280.783 634.583C258.522 605.534 247.392 564.327 247.392 510.965C247.392 488.388 249.997 465.891 255.207 443.472C260.417 420.896 268.785 400.372 280.31 381.9C291.993 363.27 307.465 348.351 326.726 337.142C345.987 325.932 369.668 320.328 397.771 320.328C413.4 320.328 427.136 321.827 438.977 324.827C450.975 327.669 463.132 333.274 475.446 341.641ZM718.069 502.676C718.069 455.944 712.781 422.159 702.203 401.319C691.783 380.479 675.758 370.059 654.129 370.059C633.605 370.059 617.817 380.084 606.766 400.135C595.714 420.185 590.189 451.998 590.189 495.572C590.189 542.146 595.556 575.931 606.292 596.929C617.186 617.769 633.131 628.189 654.129 628.189C674.495 628.189 690.204 618.164 701.255 598.113C712.465 577.905 718.069 546.093 718.069 502.676ZM778.931 496.756C778.931 542.698 773.406 578.852 762.354 605.218C751.461 631.583 736.462 650.292 717.359 661.343C698.256 672.395 676.39 677.92 651.761 677.92C627.448 677.92 606.055 672.395 587.584 661.343C569.27 650.292 554.982 631.899 544.72 606.165C534.616 580.431 529.564 545.54 529.564 501.492C529.564 456.971 535.01 421.527 545.904 395.162C556.955 368.638 572.033 349.535 591.136 337.852C610.397 326.169 632.184 320.328 656.497 320.328C682.073 320.328 703.939 326.09 722.095 337.615C740.409 348.982 754.46 367.612 764.249 393.504C774.037 419.238 778.931 453.655 778.931 496.756Z" fill="black"/>
</svg>
