<svg width="1006" height="1006" viewBox="0 0 1006 1006" fill="none" xmlns="http://www.w3.org/2000/svg">
<circle cx="503" cy="503" r="501.5" fill="white" stroke="black" stroke-width="3"/>
<circle cx="503" cy="503" r="445" fill="white" stroke="#FF0000" stroke-width="80"/>
<path d="M341.408 672H281.73C291.835 638.53 301.781 608.533 311.569 582.01C321.358 555.328 331.541 530.7 342.119 508.123C352.696 485.547 364.143 463.759 376.457 442.762C388.771 421.764 402.586 400.135 417.9 377.874H336.672C314.411 377.874 296.097 378.19 281.73 378.821C267.364 379.453 255.681 380.716 246.682 382.61V326.248H487.524V370.533C452.475 418.528 423.189 467.233 399.665 516.648C376.141 565.906 356.722 617.69 341.408 672ZM732.619 502.676C732.619 455.944 727.331 422.159 716.753 401.319C706.333 380.479 690.308 370.059 668.679 370.059C648.155 370.059 632.367 380.084 621.316 400.135C610.264 420.185 604.739 451.998 604.739 495.572C604.739 542.146 610.106 575.931 620.842 596.929C631.736 617.769 647.681 628.189 668.679 628.189C689.045 628.189 704.754 618.164 715.805 598.113C727.015 577.905 732.619 546.093 732.619 502.676ZM793.481 496.756C793.481 542.698 787.956 578.852 776.904 605.218C766.011 631.583 751.012 650.292 731.909 661.343C712.806 672.395 690.94 677.92 666.311 677.92C641.998 677.92 620.605 672.395 602.134 661.343C583.82 650.292 569.532 631.899 559.27 606.165C549.166 580.431 544.114 545.54 544.114 501.492C544.114 456.971 549.56 421.527 560.454 395.162C571.505 368.638 586.583 349.535 605.686 337.852C624.947 326.169 646.734 320.328 671.047 320.328C696.623 320.328 718.489 326.09 736.645 337.615C754.959 348.982 769.01 367.612 778.799 393.504C788.587 419.238 793.481 453.655 793.481 496.756Z" fill="black"/>
</svg>
