<svg width="1006" height="1006" viewBox="0 0 1006 1006" fill="none" xmlns="http://www.w3.org/2000/svg">
<circle cx="503" cy="503" r="501.5" fill="white" stroke="black" stroke-width="3"/>
<circle cx="503" cy="503" r="445" fill="white" stroke="#FF0000" stroke-width="80"/>
<path d="M368.168 677.92C347.013 677.92 326.962 673.895 308.017 665.843C289.072 657.791 273.679 646.187 261.838 631.031C250.155 615.717 244.313 597.403 244.313 576.089C244.313 558.723 247.313 544.277 253.312 532.752C259.312 521.069 267.048 511.36 276.521 503.624C285.993 495.888 295.782 489.257 305.886 483.731C299.729 480.258 293.098 475.6 285.993 469.759C278.889 463.759 272.81 455.944 267.758 446.314C262.706 436.683 260.18 424.685 260.18 410.318C260.18 390.899 265.39 374.559 275.81 361.297C286.23 347.877 299.807 337.694 316.542 330.748C333.435 323.801 351.433 320.328 370.537 320.328C389.798 320.328 407.401 323.801 423.347 330.748C439.45 337.694 452.317 347.877 461.948 361.297C471.578 374.559 476.394 390.899 476.394 410.318C476.394 424.685 473.946 436.604 469.052 446.077C464.316 455.55 458.474 463.286 451.528 469.285C444.581 475.127 438.029 479.942 431.872 483.731C440.555 488.152 449.554 494.151 458.869 501.729C468.184 509.307 476.078 519.017 482.551 530.857C489.024 542.54 492.26 557.065 492.26 574.432C492.26 595.745 486.34 614.138 474.499 629.61C462.816 645.082 447.502 657.002 428.557 665.369C409.769 673.737 389.64 677.92 368.168 677.92ZM421.926 412.686C421.926 399.109 417.189 388.136 407.717 379.769C398.244 371.243 385.061 366.98 368.168 366.98C352.854 366.98 340.066 371.085 329.804 379.295C319.7 387.347 314.648 398.477 314.648 412.686C314.648 428 319.542 440.157 329.331 449.156C339.119 457.997 352.065 462.417 368.168 462.417C384.43 462.417 397.455 457.997 407.243 449.156C417.032 440.157 421.926 428 421.926 412.686ZM434.477 568.274C434.477 550.908 428.083 536.62 415.295 525.411C402.665 514.201 386.956 508.597 368.168 508.597C349.223 508.597 333.435 514.201 320.805 525.411C308.175 536.62 301.86 550.908 301.86 568.274C301.86 585.009 308.017 599.218 320.332 610.901C332.646 622.426 348.592 628.189 368.168 628.189C388.535 628.189 404.638 622.426 416.479 610.901C428.478 599.218 434.477 585.009 434.477 568.274ZM732.619 502.676C732.619 455.944 727.331 422.159 716.753 401.319C706.333 380.479 690.308 370.059 668.679 370.059C648.155 370.059 632.367 380.084 621.316 400.135C610.264 420.185 604.739 451.998 604.739 495.572C604.739 542.146 610.106 575.931 620.842 596.929C631.736 617.769 647.681 628.189 668.679 628.189C689.045 628.189 704.754 618.164 715.805 598.113C727.015 577.905 732.619 546.093 732.619 502.676ZM793.481 496.756C793.481 542.698 787.956 578.852 776.904 605.218C766.011 631.583 751.012 650.292 731.909 661.343C712.806 672.395 690.94 677.92 666.311 677.92C641.998 677.92 620.605 672.395 602.134 661.343C583.82 650.292 569.532 631.899 559.27 606.165C549.166 580.431 544.114 545.54 544.114 501.492C544.114 456.971 549.56 421.527 560.454 395.162C571.505 368.638 586.583 349.535 605.686 337.852C624.947 326.169 646.734 320.328 671.047 320.328C696.623 320.328 718.489 326.09 736.645 337.615C754.959 348.982 769.01 367.612 778.799 393.504C788.587 419.238 793.481 453.655 793.481 496.756Z" fill="black"/>
</svg>
